<?xml version="1.0" encoding="UTF-8"?>
<svg width="57px" height="27px" viewBox="0 0 57 27" version="1.1" xmlns="http://www.w3.org/2000/svg" xmlns:xlink="http://www.w3.org/1999/xlink">
    <!-- Generator: Sketch 50.2 (55047) - http://www.bohemiancoding.com/sketch -->
    <title>Group</title>
    <desc>Created with Sketch.</desc>
    <defs></defs>
    <g id="Platform" stroke="none" stroke-width="1" fill="none" fill-rule="evenodd">
        <g id="orca-Platform" transform="translate(-212.000000, -3199.000000)" stroke="#D3D7E1" stroke-width="2">
            <g id="Group" transform="translate(240.500000, 3212.500000) scale(-1, 1) translate(-240.500000, -3212.500000) translate(213.000000, 3200.000000)">
                <path d="M54.9245968,6.13160714 L45.3191129,9.89232143 C41.8159677,6.37714286 34.6482258,0.892321429 24.0048387,0.892321429 C8.45225806,0.892321429 0.198709677,12.77 0.198709677,12.77 C0.198709677,12.77 8.60217742,24.6476786 24.0048387,24.6476786 C35.0048387,24.6476786 42.011129,19.2146429 45.3962903,15.6976786 L54.9245968,19.4092857 L54.9245968,6.13160714 Z" id="Stroke-1"></path>
                <path d="M12.3352581,12.7700893 C12.3352581,13.7977679 11.5075968,14.6308036 10.4865484,14.6308036 C9.4655,14.6308036 8.63783871,13.7977679 8.63783871,12.7700893 C8.63783871,11.7424107 9.4655,10.909375 10.4865484,10.909375 C11.5075968,10.909375 12.3352581,11.7424107 12.3352581,12.7700893 Z" id="Stroke-3" stroke-linecap="round" stroke-linejoin="round"></path>
                <polyline id="Stroke-5" points="12.3352581 12.7700893 17.0528387 12.7700893 17.0528387 23.8049107"></polyline>
                <path d="M21.7854113,1.04392857 L21.7854113,24.6475" id="Stroke-7"></path>
            </g>
        </g>
    </g>
</svg>