<?xml version="1.0" encoding="UTF-8"?>
<svg width="46px" height="68px" viewBox="0 0 46 68" version="1.1" xmlns="http://www.w3.org/2000/svg" xmlns:xlink="http://www.w3.org/1999/xlink">
    <!-- Generator: Sketch 50.2 (55047) - http://www.bohemiancoding.com/sketch -->
    <title>Group</title>
    <desc>Created with Sketch.</desc>
    <defs></defs>
    <g id="Design" stroke="none" stroke-width="1" fill="none" fill-rule="evenodd">
        <g id="Guidelines" transform="translate(-785.000000, -2256.000000)" stroke="#D3D7E1" stroke-width="2">
            <g id="Group" transform="translate(785.000000, 2257.000000)">
                <path d="M39.7547059,3.24647059 C39.7547059,4.87 38.4385294,6.18764706 36.8135294,6.18764706 C35.19,6.18764706 33.8723529,4.87 33.8723529,3.24647059 C33.8723529,1.62294118 35.19,0.305294118 36.8135294,0.305294118 C38.4385294,0.305294118 39.7547059,1.62294118 39.7547059,3.24647059 Z" id="Stroke-1"></path>
                <path d="M16.6863235,39.4238235 C16.6863235,41.4532353 15.0407353,43.1002941 13.0098529,43.1002941 C10.9804412,43.1002941 9.33338235,41.4532353 9.33338235,39.4238235 C9.33338235,37.3929412 10.9804412,35.7473529 13.0098529,35.7473529 C15.0407353,35.7473529 16.6863235,37.3929412 16.6863235,39.4238235 Z" id="Stroke-3"></path>
                <path d="M10.2302941,22.6972059 C10.2302941,23.9148529 9.24352941,24.9030882 8.02441176,24.9030882 C6.80676471,24.9030882 5.81852941,23.9148529 5.81852941,22.6972059 C5.81852941,21.4780882 6.80676471,20.4913235 8.02441176,20.4913235 C9.24352941,20.4913235 10.2302941,21.4780882 10.2302941,22.6972059 Z" id="Stroke-5"></path>
                <path d="M0.921617647,65.4707353 L36.0031584,65.4707353" id="Stroke-9"></path>
                <polyline id="Stroke-11" points="13.0098529 43.1002941 13.0098529 54.2826471 8.02455882 54.2826471 8.02455882 65.4708824"></polyline>
                <path d="M44.3529412,30.6764706 C44.3529412,32.7058824 42.7073529,34.3529412 40.6764706,34.3529412 C38.6470588,34.3529412 37,32.7058824 37,30.6764706 C37,28.6455882 38.6470588,27 40.6764706,27 C42.7073529,27 44.3529412,28.6455882 44.3529412,30.6764706 Z" id="Stroke-13"></path>
                <polyline id="Stroke-15" points="40.9058824 34 40.9058824 44.6058824 35 44.6058824 35 65.1941176"></polyline>
                <path d="M29.0319118,20.6464706 C29.0319118,22.6773529 27.3848529,24.3229412 25.3554412,24.3229412 C23.3245588,24.3229412 21.6789706,22.6773529 21.6789706,20.6464706 C21.6789706,18.6170588 23.3245588,16.97 25.3554412,16.97 C27.3848529,16.97 29.0319118,18.6170588 29.0319118,20.6464706 Z" id="Stroke-17"></path>
                <path d="M25.3554412,65.3148529 L25.3554412,23.8266176" id="Stroke-19"></path>
                <path d="M39.7777941,65.3148529 L45.4542647,65.3148529" id="Stroke-21"></path>
            </g>
        </g>
    </g>
</svg>