<?xml version="1.0" encoding="UTF-8"?>
<svg width="79px" height="65px" viewBox="0 0 79 65" version="1.1" xmlns="http://www.w3.org/2000/svg" xmlns:xlink="http://www.w3.org/1999/xlink">
    <!-- Generator: Sketch 50 (54983) - http://www.bohemiancoding.com/sketch -->
    <title>Fill 1</title>
    <desc>Created with Sketch.</desc>
    <defs></defs>
    <g id="Page-1" stroke="none" stroke-width="1" fill="none" fill-rule="evenodd">
        <g id="orca-facelift-europa" transform="translate(-839.000000, -3975.000000)" fill="#F9057C">
            <g id="citata" transform="translate(744.000000, 3975.000000)">
                <path d="M166.908828,4.85571192 C156.45826,9.21006129 147.500446,19.9090981 147.500446,29.8618659 C147.500446,32.1013194 147.749562,33.7188462 148.246931,35.2118153 C150.859626,33.2214772 154.094249,31.8530659 157.702114,31.8530659 C166.660144,31.8530659 174,37.9484224 174,48.1503057 C174,57.6054889 166.660144,64.4486229 157.702114,64.4486229 C150.362473,64.4486229 145.758792,61.2133538 142.648728,56.3618509 C139.040863,50.7625705 138.294378,43.6713985 138.294378,39.5661647 C138.294378,23.0198094 146.505277,8.71269228 164.544601,0.252247042 L166.908828,4.85571192 Z M123.613803,4.85571192 C113.163451,9.21006129 104.206068,19.9090981 104.206068,29.8618659 C104.206068,32.1013194 104.454752,33.7188462 104.952552,35.2118153 C107.440475,33.2214772 110.799871,31.8530659 114.407736,31.8530659 C123.240561,31.8530659 130.705406,37.9484224 130.705406,48.1503057 C130.705406,57.6054889 123.240561,64.4486229 114.407736,64.4486229 C106.942675,64.4486229 102.464414,61.2133538 99.3537029,56.3618509 C95.745838,50.7625705 95,43.6713985 95,39.5661647 C95,23.0198094 103.210899,8.71269228 121.250223,0.252247042 L123.613803,4.85571192 Z" id="Fill-1"></path>
            </g>
        </g>
    </g>
</svg>