<?xml version="1.0" encoding="UTF-8"?>
<svg width="64px" height="8px" viewBox="0 0 64 8" version="1.1" xmlns="http://www.w3.org/2000/svg" xmlns:xlink="http://www.w3.org/1999/xlink">
    <!-- Generator: Sketch 50.2 (55047) - http://www.bohemiancoding.com/sketch -->
    <title>Group Copy 2</title>
    <desc>Created with Sketch.</desc>
    <defs></defs>
    <g id="Design" stroke="none" stroke-width="1" fill="none" fill-rule="evenodd">
        <g id="Guidelines" transform="translate(-981.000000, -2287.000000)" stroke="#D3D7E1" stroke-width="2">
            <g id="Group-Copy-2" transform="translate(1012.500000, 2291.000000) scale(1, -1) translate(-1012.500000, -2291.000000) translate(981.000000, 2288.000000)">
                <path d="M56.6585,2.94923 L53.7625,4.66823 C50.9975,6.30823 47.5575,6.30823 44.7925,4.66823 L41.8975,2.94923 L39.0015,1.23023 C36.2375,-0.40977 32.7965,-0.40977 30.0325,1.23023 L27.1365,2.94923 L24.2415,4.66823 C21.4765,6.30823 18.0355,6.30823 15.2715,4.66823 L12.3755,2.94923 L9.4805,1.23023 C6.7155,-0.40977 3.2755,-0.40977 0.5105,1.23023" id="Stroke-1"></path>
                <path d="M62.5267,2.94923 C62.5267,4.57023 61.2127,5.88323 59.5927,5.88323 C57.9717,5.88323 56.6587,4.57023 56.6587,2.94923 C56.6587,1.32823 57.9717,0.01523 59.5927,0.01523 C61.2127,0.01523 62.5267,1.32823 62.5267,2.94923 Z" id="Stroke-3"></path>
            </g>
        </g>
    </g>
</svg>